<?xml version="1.0" encoding="UTF-8"?> <svg xmlns="http://www.w3.org/2000/svg" width="137" height="36" viewBox="0 0 137 36" fill="none"><g id="kantipur-infotech-seeklogo.com 3 1" clip-path="url(#clip0_13_230)"><path id="Vector" fill-rule="evenodd" clip-rule="evenodd" d="M18.098 0L0 18L7.51807 25.4774L2.36796 30.5992L1.54088 31.422L0.00560622 32.9497L1.5419 34.4775L3.07258 36L4.47214 34.608C4.52129 34.5672 4.56891 34.5236 4.61499 34.4779L10.5912 28.5339L18.098 36L25.6106 28.5281L31.5929 34.4779C31.6145 34.4994 31.6361 34.5203 31.6583 34.5405L33.126 36L34.5388 34.5943C34.5816 34.5579 34.6246 34.519 34.6643 34.4787C34.7042 34.4383 34.7437 34.3965 34.7807 34.3539L36.1912 32.9506L34.7803 31.5474C34.7437 31.5048 34.7048 31.463 34.6643 31.4226L28.6822 25.4731L36.196 18L18.098 0ZM25.6097 22.4172L30.0509 18L18.098 6.11214L6.14517 18L10.5907 22.4214L18.1026 14.9506L25.6097 22.4172ZM13.6638 25.4779L18.098 29.8881L22.5381 25.4719L18.1039 21.0617L13.6638 25.4779Z" fill="white"></path><path id="Vector_2" d="M55.4778 16.2501H59.1293L53.0228 9.03405L58.9643 1.94104H55.4778L50.2377 8.35754V1.94104H47.3496V16.2501H50.2377V9.87455L55.4778 16.2501Z" fill="white"></path><path id="Vector_3" d="M60.2866 10.5305C60.2866 14.077 62.5971 16.4345 65.4854 16.4345C67.3009 16.4345 68.6004 15.5735 69.2813 14.5895V16.25H72.1901V4.89299H69.2813V6.51248C68.6004 5.5695 67.3421 4.7085 65.5061 4.7085C62.5971 4.7085 60.2866 6.98399 60.2866 10.5305ZM69.2813 10.5715C69.2813 12.724 67.8372 13.913 66.2486 13.913C64.7014 13.913 63.2366 12.683 63.2366 10.5305C63.2366 8.37798 64.7014 7.22999 66.2486 7.22999C67.8372 7.22999 69.2813 8.41899 69.2813 10.5715Z" fill="white"></path><path id="Vector_4" d="M83.0151 16.25H85.9032V9.58749C85.9032 6.451 84.0053 4.729 81.3441 4.729C79.8793 4.729 78.6416 5.344 77.8988 6.30751V4.893H75.0107V16.25H77.8988V9.97699C77.8988 8.15251 78.9098 7.16851 80.4777 7.16851C82.0042 7.16851 83.0151 8.15251 83.0151 9.97699V16.25Z" fill="white"></path><path id="Vector_5" d="M89.1038 12.724C89.1038 15.3275 90.5686 16.25 92.7553 16.25H94.5708V13.831H93.2298C92.3222 13.831 92.0127 13.503 92.0127 12.7445V7.25047H94.5708V4.89298H92.0127V2.08447H89.1038V4.89298H87.7422V7.25047H89.1038V12.724Z" fill="white"></path><path id="Vector_6" d="M96.6483 16.25H99.5366V4.89298H96.6483V16.25ZM98.1131 3.53998C99.1238 3.53998 99.8873 2.80198 99.8873 1.85898C99.8873 0.915979 99.1238 0.177979 98.1131 0.177979C97.0815 0.177979 96.3389 0.915979 96.3389 1.85898C96.3389 2.80198 97.0815 3.53998 98.1131 3.53998Z" fill="white"></path><path id="Vector_7" d="M105.278 6.53298V4.89299H102.39V21.6619H105.278V14.6305C105.979 15.553 107.258 16.4345 109.053 16.4345C111.983 16.4345 114.272 14.077 114.272 10.5305C114.272 6.98399 111.983 4.7085 109.053 4.7085C107.279 4.7085 105.959 5.5695 105.278 6.53298ZM111.322 10.5305C111.322 12.683 109.858 13.913 108.29 13.913C106.743 13.913 105.278 12.724 105.278 10.5715C105.278 8.41899 106.743 7.22999 108.29 7.22999C109.858 7.22999 111.322 8.37798 111.322 10.5305Z" fill="white"></path><path id="Vector_8" d="M127.161 4.89294H124.252V11.1454C124.252 12.97 123.262 13.954 121.694 13.954C120.167 13.954 119.156 12.97 119.156 11.1454V4.89294H116.268V11.5554C116.268 14.6715 118.187 16.3935 120.848 16.3935C122.271 16.3935 123.53 15.7785 124.252 14.8149V16.25H127.161V4.89294Z" fill="white"></path><path id="Vector_9" d="M132.899 10.592C132.899 8.39851 133.93 7.74249 135.643 7.74249H136.406V4.729C134.817 4.729 133.621 5.4875 132.899 6.65599V4.893H130.011V16.25H132.899V10.592Z" fill="white"></path><path id="Vector_10" d="M47.3496 34.2499H50.2377V19.941H47.3496V34.2499Z" fill="white"></path><path id="Vector_11" d="M61.0957 34.25H63.984V27.5875C63.984 24.451 62.086 22.729 59.4246 22.729C57.9599 22.729 56.7222 23.3441 55.9794 24.3076V22.8931H53.0913V34.25H55.9794V27.9771C55.9794 26.1525 56.9904 25.1685 58.5583 25.1685C60.0849 25.1685 61.0957 26.1525 61.0957 27.9771V34.25Z" fill="white"></path><path id="Vector_12" d="M67.0398 34.25H69.9693V25.2506H71.9704V22.8931H69.9693V22.4215C69.9693 21.1506 70.4438 20.6995 71.8467 20.7405V18.3215C68.6283 18.2395 67.0398 19.531 67.0398 22.3191V22.8931H65.7402V25.2506H67.0398V34.25Z" fill="white"></path><path id="Vector_13" d="M84.8792 28.5715C84.8792 24.984 82.3005 22.7085 78.9996 22.7085C75.6988 22.7085 73.1201 24.984 73.1201 28.5715C73.1201 32.1386 75.6163 34.4346 78.9171 34.4346C82.2386 34.4346 84.8792 32.1386 84.8792 28.5715ZM76.0495 28.5715C76.0495 26.2961 77.4317 25.2095 78.9584 25.2095C80.485 25.2095 81.9084 26.2961 81.9084 28.5715C81.9084 30.8265 80.4438 31.9336 78.9171 31.9336C77.3698 31.9336 76.0495 30.8265 76.0495 28.5715Z" fill="white"></path><path id="Vector_14" d="M87.452 30.724C87.452 33.3274 88.9167 34.2499 91.1035 34.2499H92.9189V31.8309H91.5779C90.6703 31.8309 90.3609 31.5031 90.3609 30.7445V25.2505H92.9189V22.8931H90.3609V20.0845H87.452V22.8931H86.0903V25.2505H87.452V30.724Z" fill="white"></path><path id="Vector_15" d="M99.906 25.0661C101.391 25.0661 102.588 26.0091 102.629 27.5056H97.2036C97.4305 25.9475 98.524 25.0661 99.906 25.0661ZM105.332 30.6831H102.217C101.845 31.4416 101.165 32.0565 99.9267 32.0565C98.4827 32.0565 97.3274 31.1135 97.183 29.4326H105.538C105.6 29.0635 105.621 28.6946 105.621 28.3255C105.621 24.943 103.289 22.7085 99.9885 22.7085C96.6054 22.7085 94.2534 24.984 94.2534 28.5715C94.2534 32.1386 96.6673 34.4346 99.9885 34.4346C102.815 34.4346 104.713 32.774 105.332 30.6831Z" fill="white"></path><path id="Vector_16" d="M106.986 28.5715C106.986 32.1386 109.338 34.4346 112.638 34.4346C115.485 34.4346 117.404 32.8355 118.023 30.4166H114.908C114.557 31.4416 113.814 31.9746 112.618 31.9746C111.009 31.9746 109.936 30.7855 109.936 28.5715C109.936 26.3575 111.009 25.148 112.618 25.148C113.814 25.148 114.578 25.7631 114.908 26.7266H118.023C117.404 24.1845 115.485 22.7085 112.638 22.7085C109.338 22.7085 106.986 25.0046 106.986 28.5715Z" fill="white"></path><path id="Vector_17" d="M120.139 34.2499H123.027V27.977C123.027 26.1524 124.038 25.1684 125.606 25.1684C127.132 25.1684 128.143 26.1524 128.143 27.977V34.2499H131.031V27.5874C131.031 24.4509 129.154 22.7289 126.575 22.7289C125.048 22.7289 123.77 23.344 123.027 24.3075V19.08H120.139V34.2499Z" fill="white"></path></g><defs><clipPath id="clip0_13_230"><rect width="137" height="36" fill="white"></rect></clipPath></defs></svg> 